<svg width="900" height="159" viewBox="0 0 900 159" fill="none" xmlns="http://www.w3.org/2000/svg">
<path d="M14.994 18.61C29.274 14.02 43.707 11.725 58.293 11.725C72.879 11.725 84.099 14.173 91.953 19.069C93.789 24.577 94.707 29.83 94.707 34.828C94.707 46.558 89.862 56.401 80.172 64.357C70.482 72.211 57.987 77.872 42.687 81.34L39.015 115.612L23.715 117.142L14.994 18.61ZM65.178 39.265C65.178 31.411 61.965 25.546 55.539 21.67C53.703 21.67 51.459 22.027 48.807 22.741L43.758 70.936C50.388 67.264 55.59 62.521 59.364 56.707C63.24 50.893 65.178 45.079 65.178 39.265ZM127.105 32.533C151.789 42.427 164.131 54.718 164.131 69.406C164.131 77.056 161.938 82.615 157.552 86.083C153.268 89.449 145.261 91.132 133.531 91.132C126.085 91.132 119.965 90.571 115.171 89.449C113.233 94.243 112.264 99.241 112.264 104.443C116.854 105.055 122.056 105.361 127.87 105.361C138.478 105.361 148.474 103.678 157.858 100.312L162.448 115.153C155.002 117.499 146.638 118.672 137.356 118.672C120.832 118.672 108.694 115.663 100.942 109.645C99.3098 102.403 98.4938 95.569 98.4938 89.143C98.4938 76.291 101.299 64.714 106.909 54.412C112.621 44.11 119.353 36.817 127.105 32.533ZM118.231 82.258C119.557 82.36 122.872 82.411 128.176 82.411C133.582 82.411 139.753 81.697 146.689 80.269C146.995 78.331 147.148 76.393 147.148 74.455C147.148 68.335 145.465 62.47 142.099 56.86C132.001 63.592 124.045 72.058 118.231 82.258ZM245.401 34.981C247.339 34.981 249.226 35.287 251.062 35.899C254.734 40.285 257.692 46.915 259.936 55.789C262.282 64.561 263.455 74.404 263.455 85.318C263.455 96.13 261.058 104.392 256.264 110.104C251.572 115.816 243.361 118.672 231.631 118.672C223.267 118.672 215.362 116.938 207.916 113.47L203.785 146.824L189.556 148.201L184.813 41.407L217.555 36.358L214.189 63.286H215.26C219.34 54.514 223.981 47.629 229.183 42.631C234.385 37.531 239.791 34.981 245.401 34.981ZM225.664 109.186C229.438 109.186 232.651 108.472 235.303 107.044C236.833 99.19 237.598 91.795 237.598 84.859C237.598 77.821 237.292 71.344 236.68 65.428C236.068 59.512 235.354 55.432 234.538 53.188C232.294 54.106 230.611 54.871 229.489 55.483C228.367 55.993 226.582 57.421 224.134 59.767C221.686 62.011 219.697 64.714 218.167 67.876C214.087 76.444 211.078 88.378 209.14 103.678C213.73 107.35 219.238 109.186 225.664 109.186ZM312.378 32.533C337.062 42.427 349.404 54.718 349.404 69.406C349.404 77.056 347.211 82.615 342.825 86.083C338.541 89.449 330.534 91.132 318.804 91.132C311.358 91.132 305.238 90.571 300.444 89.449C298.506 94.243 297.537 99.241 297.537 104.443C302.127 105.055 307.329 105.361 313.143 105.361C323.751 105.361 333.747 103.678 343.131 100.312L347.721 115.153C340.275 117.499 331.911 118.672 322.629 118.672C306.105 118.672 293.967 115.663 286.215 109.645C284.583 102.403 283.767 95.569 283.767 89.143C283.767 76.291 286.572 64.714 292.182 54.412C297.894 44.11 304.626 36.817 312.378 32.533ZM303.504 82.258C304.83 82.36 308.145 82.411 313.449 82.411C318.855 82.411 325.026 81.697 331.962 80.269C332.268 78.331 332.421 76.393 332.421 74.455C332.421 68.335 330.738 62.47 327.372 56.86C317.274 63.592 309.318 72.058 303.504 82.258ZM367.027 64.663C367.027 51.607 373.912 39.673 387.682 28.861L412.774 45.691C401.452 52.933 395.791 60.532 395.791 68.488C395.791 72.67 398.086 78.127 402.676 84.859C407.368 91.591 409.714 96.844 409.714 100.618C409.714 113.98 400.534 124.282 382.174 131.524L375.442 122.497C383.5 118.111 387.529 113.266 387.529 107.962C387.529 102.964 384.112 96.64 377.278 88.99C374.728 86.134 372.382 82.513 370.24 78.127C368.098 73.741 367.027 69.253 367.027 64.663ZM445.048 117.295L438.469 55.483L424.393 57.472L423.475 41.713L436.939 41.101L434.644 19.681L472.741 14.632L469.681 39.418L484.828 38.653L484.369 48.904L468.151 51.199L460.195 115.918L445.048 117.295ZM506.35 117.295L498.547 41.56L531.289 36.511L521.497 115.918L506.35 117.295ZM503.29 24.577C500.536 21.721 499.159 18.355 499.159 14.479C499.159 10.603 500.536 7.28799 503.29 4.53399C506.146 1.67799 509.512 0.249991 513.388 0.249991C517.264 0.249991 520.579 1.67799 523.333 4.53399C526.189 7.28799 527.617 10.603 527.617 14.479C527.617 18.355 526.189 21.721 523.333 24.577C520.579 27.331 517.264 28.708 513.388 28.708C509.512 28.708 506.146 27.331 503.29 24.577ZM612.764 34.981C614.702 34.981 616.589 35.287 618.425 35.899C623.627 42.223 627.197 53.188 629.135 68.794C631.073 84.298 632.042 99.7 632.042 115L604.502 117.295C604.502 93.835 603.635 72.466 601.901 53.188C588.335 58.186 579.308 79.096 574.82 115.918L559.673 117.295L551.87 41.407L584.612 36.358L581.246 63.286H582.623C586.703 54.412 591.344 47.476 596.546 42.478C601.748 37.48 607.154 34.981 612.764 34.981ZM661.442 117.295L653.639 41.56L686.381 36.511L676.589 115.918L661.442 117.295ZM658.382 24.577C655.628 21.721 654.251 18.355 654.251 14.479C654.251 10.603 655.628 7.28799 658.382 4.53399C661.238 1.67799 664.604 0.249991 668.48 0.249991C672.356 0.249991 675.671 1.67799 678.425 4.53399C681.281 7.28799 682.709 10.603 682.709 14.479C682.709 18.355 681.281 21.721 678.425 24.577C675.671 27.331 672.356 28.708 668.48 28.708C664.604 28.708 661.238 27.331 658.382 24.577ZM717.672 118.519C715.938 118.519 714.663 118.468 713.847 118.366C710.379 116.02 707.574 112.552 705.432 107.962C703.392 103.27 702.372 98.425 702.372 93.427C702.372 86.899 704.82 82.156 709.716 79.198C714.714 76.24 723.843 74.761 737.103 74.761C741.999 74.761 747.099 75.118 752.403 75.832L752.097 72.466C751.689 68.386 749.751 65.173 746.283 62.827C742.815 60.379 738.378 59.155 732.972 59.155C727.566 59.155 722.16 60.838 716.754 64.204L710.022 42.019C718.794 38.449 728.79 36.664 740.01 36.664C751.23 36.664 760.104 39.214 766.632 44.314C773.16 49.312 776.424 57.166 776.424 67.876C776.424 70.324 776.322 72.262 776.118 73.69L771.834 115.918L756.687 117.295L754.392 95.11H753.168C749.7 102.454 744.906 108.217 738.786 112.399C732.666 116.479 725.628 118.519 717.672 118.519ZM753.015 82.258L744.906 82.105C738.174 82.105 732.666 82.462 728.382 83.176C726.954 86.032 726.24 88.582 726.24 90.826C726.24 93.07 726.546 95.212 727.158 97.252C727.77 99.292 728.433 100.669 729.147 101.383C741.387 99.445 749.343 93.07 753.015 82.258ZM856.608 34.981C858.546 34.981 860.433 35.287 862.269 35.899C867.471 42.223 871.041 53.188 872.979 68.794C874.917 84.298 875.886 99.7 875.886 115L848.346 117.295C848.346 93.835 847.479 72.466 845.745 53.188C832.179 58.186 823.152 79.096 818.664 115.918L803.517 117.295L795.714 41.407L828.456 36.358L825.09 63.286H826.467C830.547 54.412 835.188 47.476 840.39 42.478C845.592 37.48 850.998 34.981 856.608 34.981Z" fill="#411C1C"/>
<path d="M27.994 28.61C42.274 24.02 56.707 21.725 71.293 21.725C85.879 21.725 97.099 24.173 104.953 29.069C106.789 34.577 107.707 39.83 107.707 44.828C107.707 56.558 102.862 66.401 93.172 74.357C83.482 82.211 70.987 87.872 55.687 91.34L52.015 125.612L36.715 127.142L27.994 28.61ZM78.178 49.265C78.178 41.411 74.965 35.546 68.539 31.67C66.703 31.67 64.459 32.027 61.807 32.741L56.758 80.936C63.388 77.264 68.59 72.521 72.364 66.707C76.24 60.893 78.178 55.079 78.178 49.265ZM140.105 42.533C164.789 52.427 177.131 64.718 177.131 79.406C177.131 87.056 174.938 92.615 170.552 96.083C166.268 99.449 158.261 101.132 146.531 101.132C139.085 101.132 132.965 100.571 128.171 99.449C126.233 104.243 125.264 109.241 125.264 114.443C129.854 115.055 135.056 115.361 140.87 115.361C151.478 115.361 161.474 113.678 170.858 110.312L175.448 125.153C168.002 127.499 159.638 128.672 150.356 128.672C133.832 128.672 121.694 125.663 113.942 119.645C112.31 112.403 111.494 105.569 111.494 99.143C111.494 86.291 114.299 74.714 119.909 64.412C125.621 54.11 132.353 46.817 140.105 42.533ZM131.231 92.258C132.557 92.36 135.872 92.411 141.176 92.411C146.582 92.411 152.753 91.697 159.689 90.269C159.995 88.331 160.148 86.393 160.148 84.455C160.148 78.335 158.465 72.47 155.099 66.86C145.001 73.592 137.045 82.058 131.231 92.258ZM258.401 44.981C260.339 44.981 262.226 45.287 264.062 45.899C267.734 50.285 270.692 56.915 272.936 65.789C275.282 74.561 276.455 84.404 276.455 95.318C276.455 106.13 274.058 114.392 269.264 120.104C264.572 125.816 256.361 128.672 244.631 128.672C236.267 128.672 228.362 126.938 220.916 123.47L216.785 156.824L202.556 158.201L197.813 51.407L230.555 46.358L227.189 73.286H228.26C232.34 64.514 236.981 57.629 242.183 52.631C247.385 47.531 252.791 44.981 258.401 44.981ZM238.664 119.186C242.438 119.186 245.651 118.472 248.303 117.044C249.833 109.19 250.598 101.795 250.598 94.859C250.598 87.821 250.292 81.344 249.68 75.428C249.068 69.512 248.354 65.432 247.538 63.188C245.294 64.106 243.611 64.871 242.489 65.483C241.367 65.993 239.582 67.421 237.134 69.767C234.686 72.011 232.697 74.714 231.167 77.876C227.087 86.444 224.078 98.378 222.14 113.678C226.73 117.35 232.238 119.186 238.664 119.186ZM325.378 42.533C350.062 52.427 362.404 64.718 362.404 79.406C362.404 87.056 360.211 92.615 355.825 96.083C351.541 99.449 343.534 101.132 331.804 101.132C324.358 101.132 318.238 100.571 313.444 99.449C311.506 104.243 310.537 109.241 310.537 114.443C315.127 115.055 320.329 115.361 326.143 115.361C336.751 115.361 346.747 113.678 356.131 110.312L360.721 125.153C353.275 127.499 344.911 128.672 335.629 128.672C319.105 128.672 306.967 125.663 299.215 119.645C297.583 112.403 296.767 105.569 296.767 99.143C296.767 86.291 299.572 74.714 305.182 64.412C310.894 54.11 317.626 46.817 325.378 42.533ZM316.504 92.258C317.83 92.36 321.145 92.411 326.449 92.411C331.855 92.411 338.026 91.697 344.962 90.269C345.268 88.331 345.421 86.393 345.421 84.455C345.421 78.335 343.738 72.47 340.372 66.86C330.274 73.592 322.318 82.058 316.504 92.258ZM380.027 74.663C380.027 61.607 386.912 49.673 400.682 38.861L425.774 55.691C414.452 62.933 408.791 70.532 408.791 78.488C408.791 82.67 411.086 88.127 415.676 94.859C420.368 101.591 422.714 106.844 422.714 110.618C422.714 123.98 413.534 134.282 395.174 141.524L388.442 132.497C396.5 128.111 400.529 123.266 400.529 117.962C400.529 112.964 397.112 106.64 390.278 98.99C387.728 96.134 385.382 92.513 383.24 88.127C381.098 83.741 380.027 79.253 380.027 74.663ZM458.048 127.295L451.469 65.483L437.393 67.472L436.475 51.713L449.939 51.101L447.644 29.681L485.741 24.632L482.681 49.418L497.828 48.653L497.369 58.904L481.151 61.199L473.195 125.918L458.048 127.295ZM519.35 127.295L511.547 51.56L544.289 46.511L534.497 125.918L519.35 127.295ZM516.29 34.577C513.536 31.721 512.159 28.355 512.159 24.479C512.159 20.603 513.536 17.288 516.29 14.534C519.146 11.678 522.512 10.25 526.388 10.25C530.264 10.25 533.579 11.678 536.333 14.534C539.189 17.288 540.617 20.603 540.617 24.479C540.617 28.355 539.189 31.721 536.333 34.577C533.579 37.331 530.264 38.708 526.388 38.708C522.512 38.708 519.146 37.331 516.29 34.577ZM625.764 44.981C627.702 44.981 629.589 45.287 631.425 45.899C636.627 52.223 640.197 63.188 642.135 78.794C644.073 94.298 645.042 109.7 645.042 125L617.502 127.295C617.502 103.835 616.635 82.466 614.901 63.188C601.335 68.186 592.308 89.096 587.82 125.918L572.673 127.295L564.87 51.407L597.612 46.358L594.246 73.286H595.623C599.703 64.412 604.344 57.476 609.546 52.478C614.748 47.48 620.154 44.981 625.764 44.981ZM674.442 127.295L666.639 51.56L699.381 46.511L689.589 125.918L674.442 127.295ZM671.382 34.577C668.628 31.721 667.251 28.355 667.251 24.479C667.251 20.603 668.628 17.288 671.382 14.534C674.238 11.678 677.604 10.25 681.48 10.25C685.356 10.25 688.671 11.678 691.425 14.534C694.281 17.288 695.709 20.603 695.709 24.479C695.709 28.355 694.281 31.721 691.425 34.577C688.671 37.331 685.356 38.708 681.48 38.708C677.604 38.708 674.238 37.331 671.382 34.577ZM730.672 128.519C728.938 128.519 727.663 128.468 726.847 128.366C723.379 126.02 720.574 122.552 718.432 117.962C716.392 113.27 715.372 108.425 715.372 103.427C715.372 96.899 717.82 92.156 722.716 89.198C727.714 86.24 736.843 84.761 750.103 84.761C754.999 84.761 760.099 85.118 765.403 85.832L765.097 82.466C764.689 78.386 762.751 75.173 759.283 72.827C755.815 70.379 751.378 69.155 745.972 69.155C740.566 69.155 735.16 70.838 729.754 74.204L723.022 52.019C731.794 48.449 741.79 46.664 753.01 46.664C764.23 46.664 773.104 49.214 779.632 54.314C786.16 59.312 789.424 67.166 789.424 77.876C789.424 80.324 789.322 82.262 789.118 83.69L784.834 125.918L769.687 127.295L767.392 105.11H766.168C762.7 112.454 757.906 118.217 751.786 122.399C745.666 126.479 738.628 128.519 730.672 128.519ZM766.015 92.258L757.906 92.105C751.174 92.105 745.666 92.462 741.382 93.176C739.954 96.032 739.24 98.582 739.24 100.826C739.24 103.07 739.546 105.212 740.158 107.252C740.77 109.292 741.433 110.669 742.147 111.383C754.387 109.445 762.343 103.07 766.015 92.258ZM869.608 44.981C871.546 44.981 873.433 45.287 875.269 45.899C880.471 52.223 884.041 63.188 885.979 78.794C887.917 94.298 888.886 109.7 888.886 125L861.346 127.295C861.346 103.835 860.479 82.466 858.745 63.188C845.179 68.186 836.152 89.096 831.664 125.918L816.517 127.295L808.714 51.407L841.456 46.358L838.09 73.286H839.467C843.547 64.412 848.188 57.476 853.39 52.478C858.592 47.48 863.998 44.981 869.608 44.981Z" fill="white"/>
</svg>
