<svg width="274" height="274" viewBox="0 0 274 274" fill="none" xmlns="http://www.w3.org/2000/svg">
<circle cx="136.907" cy="136.902" r="108.5" transform="rotate(-12.329 136.907 136.902)" fill="#FFFA8B" stroke="#236D38" stroke-width="13"/>
<path d="M77.7665 144.358C76.8806 144.164 75.9615 144.14 75.009 144.286C73.0527 144.586 71.4567 145.561 70.221 147.212C68.9963 148.849 68.5357 150.658 68.8392 152.64C69.0422 153.966 69.4582 154.963 70.0874 155.63C70.7165 156.298 71.4751 156.564 72.3632 156.428C73.2513 156.292 74.195 155.917 75.1943 155.303C76.2045 154.674 77.6349 153.434 79.4854 151.583L81.4099 164.151C78.8379 165.678 76.0074 166.678 72.9184 167.151C69.8423 167.622 66.9136 167.465 64.1324 166.679C59.7112 165.419 56.5357 162.876 54.606 159.048C53.9575 157.738 53.4997 156.254 53.2326 154.595C52.9784 152.935 52.9409 151.314 53.1202 149.732C53.2995 148.15 53.6832 146.656 54.2712 145.248C55.4454 142.421 57.3359 140.057 59.9428 138.156C62.5625 136.253 65.7075 135.027 69.3777 134.478C72.1706 134.051 74.4584 134.023 76.2411 134.396L77.7665 144.358ZM99.8022 130.709L111.83 128.867L116.551 159.699L104.523 161.541L102.779 150.15L96.4552 151.692L98.1136 162.522L86.1051 164.361L81.384 133.529L93.3925 131.69L95.0982 142.83L101.428 141.327L99.8022 130.709ZM119.582 159.235L130.43 127.62C130.798 126.496 131.663 125.652 133.026 125.088C133.422 124.922 133.922 124.793 134.527 124.7C135.132 124.607 135.815 124.681 136.576 124.92C137.348 125.144 137.996 125.592 138.52 126.262L159.469 153.127L143.811 155.525L142.128 152.661L133.788 153.938L133.212 157.148L119.582 159.235ZM133.797 147.673L140.033 146.718L135.802 138.83L133.797 147.673ZM178.713 128.604C178.435 126.789 177.62 125.985 176.269 126.192C175.69 126.281 174.918 126.616 173.953 127.199L171.548 128.654L172.704 136.203C177.11 133.75 179.113 131.217 178.713 128.604ZM190.231 127.176C190.862 131.295 189.329 134.875 185.632 137.918L195.687 147.582L180.435 149.917L173.642 141.809L175.01 150.748L162.403 152.678L157.682 121.846C165.754 120.017 171.057 118.909 173.593 118.521C176.128 118.132 178.082 117.991 179.455 118.097C183.239 118.374 186.126 119.763 188.116 122.264C189.231 123.7 189.936 125.338 190.231 127.176ZM193.437 116.371L222.628 111.901L224.16 121.902L215.568 123.217L218.758 144.049L206.75 145.888L203.56 125.056L194.969 126.372L193.437 116.371Z" fill="#4A4827"/>
</svg>
