<svg width="274" height="274" viewBox="0 0 274 274" fill="none" xmlns="http://www.w3.org/2000/svg">
<circle cx="136.907" cy="136.902" r="108.5" transform="rotate(-12.329 136.907 136.902)" fill="#FFFA8B" stroke="#1F562E" stroke-width="13"/>
<path d="M84.9227 131.142C91.8623 129.75 96.8573 128.821 99.9077 128.353C105.584 127.484 109.756 127.504 112.424 128.413C114.815 129.232 116.191 130.82 116.552 133.175C116.769 134.591 116.578 135.838 115.979 136.918C115.391 137.983 114.391 138.979 112.979 139.907C114.982 140.258 116.589 140.948 117.8 141.974C119.39 143.324 120.393 145.357 120.809 148.073C121.706 153.929 117.649 157.719 108.639 159.441C107.347 159.691 106.341 159.872 105.62 159.982C104.899 160.092 104.274 160.182 103.744 160.25C103.215 160.317 102.607 160.391 101.921 160.47C101.25 160.559 100.513 160.652 99.7111 160.749C98.924 160.856 98.122 160.952 97.3053 161.038C96.4905 161.136 95.6885 161.233 94.8995 161.327C94.1104 161.422 93.3718 161.502 92.6838 161.568C91.9977 161.646 91.3898 161.72 90.8601 161.788C90.3285 161.843 89.9191 161.879 89.632 161.897L84.9227 131.142ZM107.5 146.969C107.335 145.888 106.615 145.445 105.341 145.64C104.373 145.775 102.96 146.565 101.1 148.009C100.663 148.339 100.291 148.62 99.9838 148.852L100.729 153.717C100.899 153.625 101.057 153.535 101.201 153.447C101.359 153.357 101.71 153.158 102.256 152.851C104.197 151.763 105.502 150.911 106.172 150.295C107.258 149.299 107.7 148.19 107.5 146.969ZM99.1501 143.407C101.208 142.223 102.559 141.324 103.203 140.712C104.542 139.479 105.123 138.284 104.946 137.126C104.822 136.315 104.317 135.858 103.432 135.757C103.191 135.728 102.941 135.733 102.684 135.773C102.426 135.812 102.131 135.903 101.797 136.047C101.476 136.188 101.159 136.355 100.846 136.548C100.361 136.82 99.8316 137.191 99.2581 137.661C98.6955 138.116 98.4033 138.358 98.3815 138.388L99.1501 143.407ZM141.307 154.834C131.074 156.401 125.292 152.834 123.96 144.133L121.122 125.599L133.304 123.734L136.089 141.92C136.369 143.748 137.162 144.845 138.47 145.211C138.924 145.339 139.447 145.358 140.039 145.267C141.713 145.011 142.646 144.051 142.839 142.388C142.895 141.892 142.88 141.368 142.796 140.814L140.023 122.705L150.699 121.07L153.537 139.604C154.869 148.305 150.793 153.381 141.307 154.834ZM165.896 137.988L153.614 120.624L167.38 118.516L171.416 124.359L173.616 117.561L185.122 115.799L178.406 136.073L180.248 148.1L167.738 150.016L165.896 137.988Z" fill="#4A4827"/>
</svg>
