<svg width="1848" height="371" viewBox="0 0 1848 371" fill="none" xmlns="http://www.w3.org/2000/svg">
<path d="M205.81 105.831C216.52 105.831 226.771 103.995 236.563 100.323L241.765 116.847C233.503 119.397 225.088 120.672 216.52 120.672C207.952 120.672 200.302 119.754 193.57 117.918C186.94 116.082 181.84 113.685 178.27 110.727C176.536 102.159 175.669 93.693 175.669 85.329C175.669 68.295 178.882 52.842 185.308 38.97C191.734 25.098 199.129 15.408 207.493 9.89999L237.022 28.566C222.946 37.542 211.777 48.966 203.515 62.838C195.253 76.71 191.122 90.684 191.122 104.76C195.508 105.474 200.404 105.831 205.81 105.831ZM313.515 36.981C315.351 36.981 317.187 37.287 319.023 37.899C324.225 44.223 327.795 55.188 329.733 70.794C331.671 86.298 332.64 101.7 332.64 117L305.1 119.295C305.1 95.835 304.233 74.466 302.499 55.188C288.933 60.186 279.906 81.096 275.418 117.918L260.271 119.295L252.468 12.501L285.21 7.452L279.549 70.488H280.926C285.108 60.186 290.004 52.026 295.614 46.008C301.326 39.99 307.293 36.981 313.515 36.981ZM418.173 88.848C418.173 99.966 415.725 108.075 410.829 113.175C406.035 118.173 397.11 120.672 384.054 120.672C370.998 120.672 360.798 117.714 353.454 111.798C351.924 104.454 351.159 97.11 351.159 89.766C351.159 82.422 352.179 75.537 354.219 69.111C356.361 62.583 359.013 57.024 362.175 52.434C368.805 43.05 374.721 37.083 379.923 34.533C389.715 39.531 398.334 46.314 405.78 54.882C414.042 64.266 418.173 75.588 418.173 88.848ZM400.425 84.717C400.425 75.027 398.385 66.153 394.305 58.095C385.839 62.583 378.852 69.417 373.344 78.597C367.836 87.777 365.082 97.059 365.082 106.443C368.346 107.055 373.038 107.361 379.158 107.361C385.278 107.361 391.551 106.29 397.977 104.148C399.609 97.926 400.425 91.449 400.425 84.717ZM500.5 88.848C500.5 99.966 498.052 108.075 493.156 113.175C488.362 118.173 479.437 120.672 466.381 120.672C453.325 120.672 443.125 117.714 435.781 111.798C434.251 104.454 433.486 97.11 433.486 89.766C433.486 82.422 434.506 75.537 436.546 69.111C438.688 62.583 441.34 57.024 444.502 52.434C451.132 43.05 457.048 37.083 462.25 34.533C472.042 39.531 480.661 46.314 488.107 54.882C496.369 64.266 500.5 75.588 500.5 88.848ZM482.752 84.717C482.752 75.027 480.712 66.153 476.632 58.095C468.166 62.583 461.179 69.417 455.671 78.597C450.163 87.777 447.409 97.059 447.409 106.443C450.673 107.055 455.365 107.361 461.485 107.361C467.605 107.361 473.878 106.29 480.304 104.148C481.936 97.926 482.752 91.449 482.752 84.717ZM517.344 66.663C517.344 53.607 524.229 41.673 537.999 30.861L563.091 47.691C551.769 54.933 546.108 62.532 546.108 70.488C546.108 74.67 548.403 80.127 552.993 86.859C557.685 93.591 560.031 98.844 560.031 102.618C560.031 115.98 550.851 126.282 532.491 133.524L525.759 124.497C533.817 120.111 537.846 115.266 537.846 109.962C537.846 104.964 534.429 98.64 527.595 90.99C525.045 88.134 522.699 84.513 520.557 80.127C518.415 75.741 517.344 71.253 517.344 66.663ZM590.775 119.295L582.972 43.56L615.714 38.511L605.922 117.918L590.775 119.295ZM587.715 26.577C584.961 23.721 583.584 20.355 583.584 16.479C583.584 12.603 584.961 9.28799 587.715 6.53399C590.571 3.67799 593.937 2.24999 597.813 2.24999C601.689 2.24999 605.004 3.67799 607.758 6.53399C610.614 9.28799 612.042 12.603 612.042 16.479C612.042 20.355 610.614 23.721 607.758 26.577C605.004 29.331 601.689 30.708 597.813 30.708C593.937 30.708 590.571 29.331 587.715 26.577ZM697.189 36.981C699.127 36.981 701.014 37.287 702.85 37.899C708.052 44.223 711.622 55.188 713.56 70.794C715.498 86.298 716.467 101.7 716.467 117L688.927 119.295C688.927 95.835 688.06 74.466 686.326 55.188C672.76 60.186 663.733 81.096 659.245 117.918L644.098 119.295L636.295 43.407L669.037 38.358L665.671 65.286H667.048C671.128 56.412 675.769 49.476 680.971 44.478C686.173 39.48 691.579 36.981 697.189 36.981ZM777.844 50.139C774.07 50.139 770.857 50.853 768.205 52.281C766.777 59.217 766.063 66.408 766.063 73.854C766.063 81.3 766.369 87.879 766.981 93.591C767.593 99.201 768.307 103.026 769.123 105.066C774.019 104.148 779.221 100.833 784.729 95.121C787.687 92.061 790.084 87.675 791.92 81.963C793.858 76.149 794.827 69.57 794.827 62.226C794.827 61.002 794.725 58.758 794.521 55.494C789.829 51.924 784.27 50.139 777.844 50.139ZM789.013 150.66C778.813 150.66 768.307 147.09 757.495 139.95L761.779 132.3C770.857 136.278 778.354 138.267 784.27 138.267C790.288 138.267 794.674 136.686 797.428 133.524C800.284 130.362 801.712 126.129 801.712 120.825C801.712 119.193 800.641 107.922 798.499 87.012H797.275C789.727 107.31 776.875 117.459 758.719 117.459C756.271 117.459 754.231 117.051 752.599 116.235C748.825 112.461 745.765 106.953 743.419 99.711C741.175 92.367 740.053 84.156 740.053 75.078C740.053 63.348 742.399 54.78 747.091 49.374C751.885 43.866 760.147 41.112 771.877 41.112C780.445 41.112 787.84 43.152 794.062 47.232L797.428 42.795L826.804 38.358L816.247 123.885C815.227 132.147 812.371 138.675 807.679 143.469C802.987 148.263 796.765 150.66 789.013 150.66ZM930.925 78.138C929.089 78.75 927.61 79.056 926.488 79.056L922.357 117.612L907.057 119.142L898.336 20.61C903.742 18.876 910.882 17.295 919.756 15.867C928.732 14.439 937.3 13.725 945.46 13.725C958.516 13.725 968.971 16.173 976.825 21.069C978.661 26.577 979.579 31.626 979.579 36.216C979.579 49.068 972.184 59.676 957.394 68.04L983.098 116.847L972.388 122.814L930.925 78.138ZM950.05 40.347C950.05 33.105 946.837 27.546 940.411 23.67C937.963 23.67 935.209 24.18 932.149 25.2L927.559 69.264C934.597 66.102 940.105 61.869 944.083 56.565C948.061 51.159 950.05 45.753 950.05 40.347ZM1027.03 34.533C1051.72 44.427 1064.06 56.718 1064.06 71.406C1064.06 79.056 1061.86 84.615 1057.48 88.083C1053.19 91.449 1045.19 93.132 1033.46 93.132C1026.01 93.132 1019.89 92.571 1015.1 91.449C1013.16 96.243 1012.19 101.241 1012.19 106.443C1016.78 107.055 1021.98 107.361 1027.8 107.361C1038.4 107.361 1048.4 105.678 1057.78 102.312L1062.37 117.153C1054.93 119.499 1046.56 120.672 1037.28 120.672C1020.76 120.672 1008.62 117.663 1000.87 111.645C999.237 104.403 998.421 97.569 998.421 91.143C998.421 78.291 1001.23 66.714 1006.84 56.412C1012.55 46.11 1019.28 38.817 1027.03 34.533ZM1018.16 84.258C1019.48 84.36 1022.8 84.411 1028.1 84.411C1033.51 84.411 1039.68 83.697 1046.62 82.269C1046.92 80.331 1047.07 78.393 1047.07 76.455C1047.07 70.335 1045.39 64.47 1042.03 58.86C1031.93 65.592 1023.97 74.058 1018.16 84.258ZM1145.33 36.981C1147.27 36.981 1149.15 37.287 1150.99 37.899C1154.66 42.285 1157.62 48.915 1159.86 57.789C1162.21 66.561 1163.38 76.404 1163.38 87.318C1163.38 98.13 1160.99 106.392 1156.19 112.104C1151.5 117.816 1143.29 120.672 1131.56 120.672C1123.19 120.672 1115.29 118.938 1107.84 115.47L1103.71 148.824L1089.48 150.201L1084.74 43.407L1117.48 38.358L1114.12 65.286H1115.19C1119.27 56.514 1123.91 49.629 1129.11 44.631C1134.31 39.531 1139.72 36.981 1145.33 36.981ZM1125.59 111.186C1129.37 111.186 1132.58 110.472 1135.23 109.044C1136.76 101.19 1137.53 93.795 1137.53 86.859C1137.53 79.821 1137.22 73.344 1136.61 67.428C1136 61.512 1135.28 57.432 1134.47 55.188C1132.22 56.106 1130.54 56.871 1129.42 57.483C1128.29 57.993 1126.51 59.421 1124.06 61.767C1121.61 64.011 1119.62 66.714 1118.09 69.876C1114.01 78.444 1111.01 90.378 1109.07 105.678C1113.66 109.35 1119.17 111.186 1125.59 111.186ZM1230.05 99.099C1233.83 94.203 1236.43 88.899 1237.86 83.187C1239.28 77.475 1240 72.528 1240 68.346C1240 64.062 1239.39 55.8 1238.16 43.56L1270.9 38.511L1261.11 117.918L1245.97 119.295L1242.91 90.225H1241.83C1234.29 110.421 1222.25 120.519 1205.73 120.519C1203.28 120.519 1201.24 120.111 1199.61 119.295C1194.4 112.971 1190.83 102.261 1188.9 87.165C1186.96 71.967 1185.99 56.82 1185.99 41.724L1216.59 39.429C1214.75 57.279 1213.84 70.641 1213.84 79.515C1213.84 88.389 1214.6 97.926 1216.13 108.126C1221.74 106.902 1226.38 103.893 1230.05 99.099ZM1304.78 119.295L1298.2 57.483L1284.13 59.472L1283.21 43.713L1296.67 43.101L1294.38 21.681L1332.48 16.632L1329.42 41.418L1344.56 40.653L1344.1 50.904L1327.89 53.199L1319.93 117.918L1304.78 119.295ZM1368.23 120.519C1366.49 120.519 1365.22 120.468 1364.4 120.366C1360.93 118.02 1358.13 114.552 1355.99 109.962C1353.95 105.27 1352.93 100.425 1352.93 95.427C1352.93 88.899 1355.37 84.156 1360.27 81.198C1365.27 78.24 1374.4 76.761 1387.66 76.761C1392.55 76.761 1397.65 77.118 1402.96 77.832L1402.65 74.466C1402.24 70.386 1400.31 67.173 1396.84 64.827C1393.37 62.379 1388.93 61.155 1383.53 61.155C1378.12 61.155 1372.71 62.838 1367.31 66.204L1360.58 44.019C1369.35 40.449 1379.34 38.664 1390.56 38.664C1401.78 38.664 1410.66 41.214 1417.19 46.314C1423.71 51.312 1426.98 59.166 1426.98 69.876C1426.98 72.324 1426.88 74.262 1426.67 75.69L1422.39 117.918L1407.24 119.295L1404.95 97.11H1403.72C1400.25 104.454 1395.46 110.217 1389.34 114.399C1383.22 118.479 1376.18 120.519 1368.23 120.519ZM1403.57 84.258L1395.46 84.105C1388.73 84.105 1383.22 84.462 1378.94 85.176C1377.51 88.032 1376.79 90.582 1376.79 92.826C1376.79 95.07 1377.1 97.212 1377.71 99.252C1378.32 101.292 1378.99 102.669 1379.7 103.383C1391.94 101.445 1399.9 95.07 1403.57 84.258ZM1507.47 36.981C1509.3 36.981 1511.14 37.287 1512.98 37.899C1516.65 42.285 1519.61 48.915 1521.85 57.789C1524.2 66.561 1525.37 75.741 1525.37 85.329C1525.37 97.671 1522.67 106.647 1517.26 112.257C1511.96 117.867 1502.11 120.672 1487.73 120.672C1476 120.672 1464.83 118.02 1454.22 112.716L1447.03 12.501L1479.78 7.452L1474.27 68.805H1475.64C1479.72 59.013 1484.52 51.261 1490.03 45.549C1495.64 39.837 1501.45 36.981 1507.47 36.981ZM1470.6 110.421C1473.35 110.727 1477.28 110.88 1482.38 110.88C1487.48 110.88 1492.42 110.268 1497.22 109.044C1498.75 101.19 1499.51 93.795 1499.51 86.859C1499.51 79.821 1499.21 73.344 1498.59 67.428C1497.98 61.512 1497.27 57.432 1496.45 55.188C1483.4 60.39 1474.78 78.801 1470.6 110.421ZM1556.59 119.295L1548.78 12.501L1581.53 7.452L1571.73 117.918L1556.59 119.295ZM1628.42 34.533C1653.11 44.427 1665.45 56.718 1665.45 71.406C1665.45 79.056 1663.26 84.615 1658.87 88.083C1654.59 91.449 1646.58 93.132 1634.85 93.132C1627.4 93.132 1621.28 92.571 1616.49 91.449C1614.55 96.243 1613.58 101.241 1613.58 106.443C1618.17 107.055 1623.37 107.361 1629.19 107.361C1639.8 107.361 1649.79 105.678 1659.18 102.312L1663.77 117.153C1656.32 119.499 1647.96 120.672 1638.67 120.672C1622.15 120.672 1610.01 117.663 1602.26 111.645C1600.63 104.403 1599.81 97.569 1599.81 91.143C1599.81 78.291 1602.62 66.714 1608.23 56.412C1613.94 46.11 1620.67 38.817 1628.42 34.533ZM1619.55 84.258C1620.88 84.36 1624.19 84.411 1629.49 84.411C1634.9 84.411 1641.07 83.697 1648.01 82.269C1648.31 80.331 1648.47 78.393 1648.47 76.455C1648.47 70.335 1646.78 64.47 1643.42 58.86C1633.32 65.592 1625.36 74.058 1619.55 84.258ZM473.042 272.329C473.042 278.551 472.532 283.753 471.512 287.935C470.492 292.015 468.656 295.636 466.004 298.798C460.904 304.714 451.01 307.672 436.322 307.672C421.736 307.672 410.414 304.357 402.356 297.727C400.622 289.159 399.755 280.693 399.755 272.329C399.755 255.397 402.917 240.25 409.241 226.888C415.667 213.526 423.113 204.04 431.579 198.43C443.513 203.326 453.407 212.506 461.261 225.97C469.115 239.332 473.042 254.785 473.042 272.329ZM454.529 265.444C454.529 249.736 451.928 236.272 446.726 225.052C436.832 234.13 429.08 244.636 423.47 256.57C417.962 268.504 415.208 280.234 415.208 291.76C418.676 292.474 422.807 292.831 427.601 292.831C436.985 292.831 445.043 291.658 451.775 289.312C453.611 281.356 454.529 273.4 454.529 265.444ZM539.27 253.663C532.334 253.663 527.081 256.111 523.511 261.007C519.941 265.801 517.34 274.675 515.708 287.629L513.566 304.918L498.419 306.295L490.616 230.407L523.358 225.358L520.298 249.838H521.369C529.529 232.294 539.933 222.961 552.581 221.839L548.297 254.428C544.523 253.918 541.514 253.663 539.27 253.663ZM603.029 237.139C599.255 237.139 596.042 237.853 593.39 239.281C591.962 246.217 591.248 253.408 591.248 260.854C591.248 268.3 591.554 274.879 592.166 280.591C592.778 286.201 593.492 290.026 594.308 292.066C599.204 291.148 604.406 287.833 609.914 282.121C612.872 279.061 615.269 274.675 617.105 268.963C619.043 263.149 620.012 256.57 620.012 249.226C620.012 248.002 619.91 245.758 619.706 242.494C615.014 238.924 609.455 237.139 603.029 237.139ZM614.198 337.66C603.998 337.66 593.492 334.09 582.68 326.95L586.964 319.3C596.042 323.278 603.539 325.267 609.455 325.267C615.473 325.267 619.859 323.686 622.613 320.524C625.469 317.362 626.897 313.129 626.897 307.825C626.897 306.193 625.826 294.922 623.684 274.012H622.46C614.912 294.31 602.06 304.459 583.904 304.459C581.456 304.459 579.416 304.051 577.784 303.235C574.01 299.461 570.95 293.953 568.604 286.711C566.36 279.367 565.238 271.156 565.238 262.078C565.238 250.348 567.584 241.78 572.276 236.374C577.07 230.866 585.332 228.112 597.062 228.112C605.63 228.112 613.025 230.152 619.247 234.232L622.613 229.795L651.989 225.358L641.432 310.885C640.412 319.147 637.556 325.675 632.864 330.469C628.172 335.263 621.95 337.66 614.198 337.66ZM683.313 307.519C681.579 307.519 680.304 307.468 679.488 307.366C676.02 305.02 673.215 301.552 671.073 296.962C669.033 292.27 668.013 287.425 668.013 282.427C668.013 275.899 670.461 271.156 675.357 268.198C680.355 265.24 689.484 263.761 702.744 263.761C707.64 263.761 712.74 264.118 718.044 264.832L717.738 261.466C717.33 257.386 715.392 254.173 711.924 251.827C708.456 249.379 704.019 248.155 698.613 248.155C693.207 248.155 687.801 249.838 682.395 253.204L675.663 231.019C684.435 227.449 694.431 225.664 705.651 225.664C716.871 225.664 725.745 228.214 732.273 233.314C738.801 238.312 742.065 246.166 742.065 256.876C742.065 259.324 741.963 261.262 741.759 262.69L737.475 304.918L722.328 306.295L720.033 284.11H718.809C715.341 291.454 710.547 297.217 704.427 301.399C698.307 305.479 691.269 307.519 683.313 307.519ZM718.656 271.258L710.547 271.105C703.815 271.105 698.307 271.462 694.023 272.176C692.595 275.032 691.881 277.582 691.881 279.826C691.881 282.07 692.187 284.212 692.799 286.252C693.411 288.292 694.074 289.669 694.788 290.383C707.028 288.445 714.984 282.07 718.656 271.258ZM822.249 223.981C824.187 223.981 826.074 224.287 827.91 224.899C833.112 231.223 836.682 242.188 838.62 257.794C840.558 273.298 841.527 288.7 841.527 304L813.987 306.295C813.987 282.835 813.12 261.466 811.386 242.188C797.82 247.186 788.793 268.096 784.305 304.918L769.158 306.295L761.355 230.407L794.097 225.358L790.731 252.286H792.108C796.188 243.412 800.829 236.476 806.031 231.478C811.233 226.48 816.639 223.981 822.249 223.981ZM870.927 306.295L863.124 230.56L895.866 225.511L886.074 304.918L870.927 306.295ZM867.867 213.577C865.113 210.721 863.736 207.355 863.736 203.479C863.736 199.603 865.113 196.288 867.867 193.534C870.723 190.678 874.089 189.25 877.965 189.25C881.841 189.25 885.156 190.678 887.91 193.534C890.766 196.288 892.194 199.603 892.194 203.479C892.194 207.355 890.766 210.721 887.91 213.577C885.156 216.331 881.841 217.708 877.965 217.708C874.089 217.708 870.723 216.331 867.867 213.577ZM918.129 226.123L980.247 227.5L982.236 243.412L930.981 294.055L978.411 288.394L979.329 304L913.386 305.377L913.845 296.044L948.27 240.046L918.588 236.986L918.129 226.123ZM1012.77 307.519C1011.04 307.519 1009.76 307.468 1008.95 307.366C1005.48 305.02 1002.67 301.552 1000.53 296.962C998.491 292.27 997.471 287.425 997.471 282.427C997.471 275.899 999.919 271.156 1004.81 268.198C1009.81 265.24 1018.94 263.761 1032.2 263.761C1037.1 263.761 1042.2 264.118 1047.5 264.832L1047.2 261.466C1046.79 257.386 1044.85 254.173 1041.38 251.827C1037.91 249.379 1033.48 248.155 1028.07 248.155C1022.66 248.155 1017.26 249.838 1011.85 253.204L1005.12 231.019C1013.89 227.449 1023.89 225.664 1035.11 225.664C1046.33 225.664 1055.2 228.214 1061.73 233.314C1068.26 238.312 1071.52 246.166 1071.52 256.876C1071.52 259.324 1071.42 261.262 1071.22 262.69L1066.93 304.918L1051.79 306.295L1049.49 284.11H1048.27C1044.8 291.454 1040 297.217 1033.88 301.399C1027.76 305.479 1020.73 307.519 1012.77 307.519ZM1048.11 271.258L1040 271.105C1033.27 271.105 1027.76 271.462 1023.48 272.176C1022.05 275.032 1021.34 277.582 1021.34 279.826C1021.34 282.07 1021.64 284.212 1022.26 286.252C1022.87 288.292 1023.53 289.669 1024.25 290.383C1036.49 288.445 1044.44 282.07 1048.11 271.258ZM1103.97 306.295L1097.39 244.483L1083.32 246.472L1082.4 230.713L1095.86 230.101L1093.57 208.681L1131.66 203.632L1128.6 228.418L1143.75 227.653L1143.29 237.904L1127.07 240.199L1119.12 304.918L1103.97 306.295ZM1165.27 306.295L1157.47 230.56L1190.21 225.511L1180.42 304.918L1165.27 306.295ZM1162.21 213.577C1159.46 210.721 1158.08 207.355 1158.08 203.479C1158.08 199.603 1159.46 196.288 1162.21 193.534C1165.07 190.678 1168.43 189.25 1172.31 189.25C1176.19 189.25 1179.5 190.678 1182.26 193.534C1185.11 196.288 1186.54 199.603 1186.54 203.479C1186.54 207.355 1185.11 210.721 1182.26 213.577C1179.5 216.331 1176.19 217.708 1172.31 217.708C1168.43 217.708 1165.07 216.331 1162.21 213.577ZM1275.51 275.848C1275.51 286.966 1273.06 295.075 1268.17 300.175C1263.37 305.173 1254.45 307.672 1241.39 307.672C1228.34 307.672 1218.14 304.714 1210.79 298.798C1209.26 291.454 1208.5 284.11 1208.5 276.766C1208.5 269.422 1209.52 262.537 1211.56 256.111C1213.7 249.583 1216.35 244.024 1219.51 239.434C1226.14 230.05 1232.06 224.083 1237.26 221.533C1247.05 226.531 1255.67 233.314 1263.12 241.882C1271.38 251.266 1275.51 262.588 1275.51 275.848ZM1257.76 271.717C1257.76 262.027 1255.72 253.153 1251.64 245.095C1243.18 249.583 1236.19 256.417 1230.68 265.597C1225.17 274.777 1222.42 284.059 1222.42 293.443C1225.68 294.055 1230.38 294.361 1236.5 294.361C1242.62 294.361 1248.89 293.29 1255.32 291.148C1256.95 284.926 1257.76 278.449 1257.76 271.717ZM1354.01 223.981C1355.95 223.981 1357.84 224.287 1359.67 224.899C1364.88 231.223 1368.45 242.188 1370.38 257.794C1372.32 273.298 1373.29 288.7 1373.29 304L1345.75 306.295C1345.75 282.835 1344.88 261.466 1343.15 242.188C1329.58 247.186 1320.56 268.096 1316.07 304.918L1300.92 306.295L1293.12 230.407L1325.86 225.358L1322.5 252.286H1323.87C1327.95 243.412 1332.59 236.476 1337.8 231.478C1343 226.48 1348.4 223.981 1354.01 223.981ZM1393.36 253.663C1393.36 240.607 1400.24 228.673 1414.01 217.861L1439.11 234.691C1427.78 241.933 1422.12 249.532 1422.12 257.488C1422.12 261.67 1424.42 267.127 1429.01 273.859C1433.7 280.591 1436.05 285.844 1436.05 289.618C1436.05 302.98 1426.87 313.282 1408.51 320.524L1401.77 311.497C1409.83 307.111 1413.86 302.266 1413.86 296.962C1413.86 291.964 1410.44 285.64 1403.61 277.99C1401.06 275.134 1398.71 271.513 1396.57 267.127C1394.43 262.741 1393.36 258.253 1393.36 253.663Z" fill="#411C1C"/>
<path d="M214.959 138.831C225.669 138.831 235.92 136.995 245.712 133.323L250.914 149.847C242.652 152.397 234.237 153.672 225.669 153.672C217.101 153.672 209.451 152.754 202.719 150.918C196.089 149.082 190.989 146.685 187.419 143.727C185.685 135.159 184.818 126.693 184.818 118.329C184.818 101.295 188.031 85.842 194.457 71.97C200.883 58.098 208.278 48.408 216.642 42.9L246.171 61.566C232.095 70.542 220.926 81.966 212.664 95.838C204.402 109.71 200.271 123.684 200.271 137.76C204.657 138.474 209.553 138.831 214.959 138.831ZM322.664 69.981C324.5 69.981 326.336 70.287 328.172 70.899C333.374 77.223 336.944 88.188 338.882 103.794C340.82 119.298 341.789 134.7 341.789 150L314.249 152.295C314.249 128.835 313.382 107.466 311.648 88.188C298.082 93.186 289.055 114.096 284.567 150.918L269.42 152.295L261.617 45.501L294.359 40.452L288.698 103.488H290.075C294.257 93.186 299.153 85.026 304.763 79.008C310.475 72.99 316.442 69.981 322.664 69.981ZM427.322 121.848C427.322 132.966 424.874 141.075 419.978 146.175C415.184 151.173 406.259 153.672 393.203 153.672C380.147 153.672 369.947 150.714 362.603 144.798C361.073 137.454 360.308 130.11 360.308 122.766C360.308 115.422 361.328 108.537 363.368 102.111C365.51 95.583 368.162 90.024 371.324 85.434C377.954 76.05 383.87 70.083 389.072 67.533C398.864 72.531 407.483 79.314 414.929 87.882C423.191 97.266 427.322 108.588 427.322 121.848ZM409.574 117.717C409.574 108.027 407.534 99.153 403.454 91.095C394.988 95.583 388.001 102.417 382.493 111.597C376.985 120.777 374.231 130.059 374.231 139.443C377.495 140.055 382.187 140.361 388.307 140.361C394.427 140.361 400.7 139.29 407.126 137.148C408.758 130.926 409.574 124.449 409.574 117.717ZM509.649 121.848C509.649 132.966 507.201 141.075 502.305 146.175C497.511 151.173 488.586 153.672 475.53 153.672C462.474 153.672 452.274 150.714 444.93 144.798C443.4 137.454 442.635 130.11 442.635 122.766C442.635 115.422 443.655 108.537 445.695 102.111C447.837 95.583 450.489 90.024 453.651 85.434C460.281 76.05 466.197 70.083 471.399 67.533C481.191 72.531 489.81 79.314 497.256 87.882C505.518 97.266 509.649 108.588 509.649 121.848ZM491.901 117.717C491.901 108.027 489.861 99.153 485.781 91.095C477.315 95.583 470.328 102.417 464.82 111.597C459.312 120.777 456.558 130.059 456.558 139.443C459.822 140.055 464.514 140.361 470.634 140.361C476.754 140.361 483.027 139.29 489.453 137.148C491.085 130.926 491.901 124.449 491.901 117.717ZM526.492 99.663C526.492 86.607 533.377 74.673 547.147 63.861L572.239 80.691C560.917 87.933 555.256 95.532 555.256 103.488C555.256 107.67 557.551 113.127 562.141 119.859C566.833 126.591 569.179 131.844 569.179 135.618C569.179 148.98 559.999 159.282 541.639 166.524L534.907 157.497C542.965 153.111 546.994 148.266 546.994 142.962C546.994 137.964 543.577 131.64 536.743 123.99C534.193 121.134 531.847 117.513 529.705 113.127C527.563 108.741 526.492 104.253 526.492 99.663ZM599.924 152.295L592.121 76.56L624.863 71.511L615.071 150.918L599.924 152.295ZM596.864 59.577C594.11 56.721 592.733 53.355 592.733 49.479C592.733 45.603 594.11 42.288 596.864 39.534C599.72 36.678 603.086 35.25 606.962 35.25C610.838 35.25 614.153 36.678 616.907 39.534C619.763 42.288 621.191 45.603 621.191 49.479C621.191 53.355 619.763 56.721 616.907 59.577C614.153 62.331 610.838 63.708 606.962 63.708C603.086 63.708 599.72 62.331 596.864 59.577ZM706.337 69.981C708.275 69.981 710.162 70.287 711.998 70.899C717.2 77.223 720.77 88.188 722.708 103.794C724.646 119.298 725.615 134.7 725.615 150L698.075 152.295C698.075 128.835 697.208 107.466 695.474 88.188C681.908 93.186 672.881 114.096 668.393 150.918L653.246 152.295L645.443 76.407L678.185 71.358L674.819 98.286H676.196C680.276 89.412 684.917 82.476 690.119 77.478C695.321 72.48 700.727 69.981 706.337 69.981ZM786.992 83.139C783.218 83.139 780.005 83.853 777.353 85.281C775.925 92.217 775.211 99.408 775.211 106.854C775.211 114.3 775.517 120.879 776.129 126.591C776.741 132.201 777.455 136.026 778.271 138.066C783.167 137.148 788.369 133.833 793.877 128.121C796.835 125.061 799.232 120.675 801.068 114.963C803.006 109.149 803.975 102.57 803.975 95.226C803.975 94.002 803.873 91.758 803.669 88.494C798.977 84.924 793.418 83.139 786.992 83.139ZM798.161 183.66C787.961 183.66 777.455 180.09 766.643 172.95L770.927 165.3C780.005 169.278 787.502 171.267 793.418 171.267C799.436 171.267 803.822 169.686 806.576 166.524C809.432 163.362 810.86 159.129 810.86 153.825C810.86 152.193 809.789 140.922 807.647 120.012H806.423C798.875 140.31 786.023 150.459 767.867 150.459C765.419 150.459 763.379 150.051 761.747 149.235C757.973 145.461 754.913 139.953 752.567 132.711C750.323 125.367 749.201 117.156 749.201 108.078C749.201 96.348 751.547 87.78 756.239 82.374C761.033 76.866 769.295 74.112 781.025 74.112C789.593 74.112 796.988 76.152 803.21 80.232L806.576 75.795L835.952 71.358L825.395 156.885C824.375 165.147 821.519 171.675 816.827 176.469C812.135 181.263 805.913 183.66 798.161 183.66ZM940.074 111.138C938.238 111.75 936.759 112.056 935.637 112.056L931.506 150.612L916.206 152.142L907.485 53.61C912.891 51.876 920.031 50.295 928.905 48.867C937.881 47.439 946.449 46.725 954.609 46.725C967.665 46.725 978.12 49.173 985.974 54.069C987.81 59.577 988.728 64.626 988.728 69.216C988.728 82.068 981.333 92.676 966.543 101.04L992.247 149.847L981.537 155.814L940.074 111.138ZM959.199 73.347C959.199 66.105 955.986 60.546 949.56 56.67C947.112 56.67 944.358 57.18 941.298 58.2L936.708 102.264C943.746 99.102 949.254 94.869 953.232 89.565C957.21 84.159 959.199 78.753 959.199 73.347ZM1036.18 67.533C1060.86 77.427 1073.21 89.718 1073.21 104.406C1073.21 112.056 1071.01 117.615 1066.63 121.083C1062.34 124.449 1054.34 126.132 1042.61 126.132C1035.16 126.132 1029.04 125.571 1024.25 124.449C1022.31 129.243 1021.34 134.241 1021.34 139.443C1025.93 140.055 1031.13 140.361 1036.95 140.361C1047.55 140.361 1057.55 138.678 1066.93 135.312L1071.52 150.153C1064.08 152.499 1055.71 153.672 1046.43 153.672C1029.91 153.672 1017.77 150.663 1010.02 144.645C1008.39 137.403 1007.57 130.569 1007.57 124.143C1007.57 111.291 1010.37 99.714 1015.98 89.412C1021.7 79.11 1028.43 71.817 1036.18 67.533ZM1027.31 117.258C1028.63 117.36 1031.95 117.411 1037.25 117.411C1042.66 117.411 1048.83 116.697 1055.76 115.269C1056.07 113.331 1056.22 111.393 1056.22 109.455C1056.22 103.335 1054.54 97.47 1051.17 91.86C1041.08 98.592 1033.12 107.058 1027.31 117.258ZM1154.48 69.981C1156.41 69.981 1158.3 70.287 1160.14 70.899C1163.81 75.285 1166.77 81.915 1169.01 90.789C1171.36 99.561 1172.53 109.404 1172.53 120.318C1172.53 131.13 1170.13 139.392 1165.34 145.104C1160.65 150.816 1152.44 153.672 1140.71 153.672C1132.34 153.672 1124.44 151.938 1116.99 148.47L1112.86 181.824L1098.63 183.201L1093.89 76.407L1126.63 71.358L1123.26 98.286H1124.34C1128.42 89.514 1133.06 82.629 1138.26 77.631C1143.46 72.531 1148.87 69.981 1154.48 69.981ZM1134.74 144.186C1138.51 144.186 1141.73 143.472 1144.38 142.044C1145.91 134.19 1146.67 126.795 1146.67 119.859C1146.67 112.821 1146.37 106.344 1145.76 100.428C1145.14 94.512 1144.43 90.432 1143.61 88.188C1141.37 89.106 1139.69 89.871 1138.56 90.483C1137.44 90.993 1135.66 92.421 1133.21 94.767C1130.76 97.011 1128.77 99.714 1127.24 102.876C1123.16 111.444 1120.15 123.378 1118.22 138.678C1122.81 142.35 1128.31 144.186 1134.74 144.186ZM1239.2 132.099C1242.98 127.203 1245.58 121.899 1247 116.187C1248.43 110.475 1249.15 105.528 1249.15 101.346C1249.15 97.062 1248.53 88.8 1247.31 76.56L1280.05 71.511L1270.26 150.918L1255.11 152.295L1252.05 123.225H1250.98C1243.43 143.421 1231.4 153.519 1214.87 153.519C1212.43 153.519 1210.39 153.111 1208.75 152.295C1203.55 145.971 1199.98 135.261 1198.04 120.165C1196.11 104.967 1195.14 89.82 1195.14 74.724L1225.74 72.429C1223.9 90.279 1222.98 103.641 1222.98 112.515C1222.98 121.389 1223.75 130.926 1225.28 141.126C1230.89 139.902 1235.53 136.893 1239.2 132.099ZM1313.93 152.295L1307.35 90.483L1293.28 92.472L1292.36 76.713L1305.82 76.101L1303.53 54.681L1341.62 49.632L1338.56 74.418L1353.71 73.653L1353.25 83.904L1337.03 86.199L1329.08 150.918L1313.93 152.295ZM1377.38 153.519C1375.64 153.519 1374.37 153.468 1373.55 153.366C1370.08 151.02 1367.28 147.552 1365.14 142.962C1363.1 138.27 1362.08 133.425 1362.08 128.427C1362.08 121.899 1364.52 117.156 1369.42 114.198C1374.42 111.24 1383.55 109.761 1396.81 109.761C1401.7 109.761 1406.8 110.118 1412.11 110.832L1411.8 107.466C1411.39 103.386 1409.45 100.173 1405.99 97.827C1402.52 95.379 1398.08 94.155 1392.68 94.155C1387.27 94.155 1381.86 95.838 1376.46 99.204L1369.73 77.019C1378.5 73.449 1388.49 71.664 1399.71 71.664C1410.93 71.664 1419.81 74.214 1426.34 79.314C1432.86 84.312 1436.13 92.166 1436.13 102.876C1436.13 105.324 1436.03 107.262 1435.82 108.69L1431.54 150.918L1416.39 152.295L1414.1 130.11H1412.87C1409.4 137.454 1404.61 143.217 1398.49 147.399C1392.37 151.479 1385.33 153.519 1377.38 153.519ZM1412.72 117.258L1404.61 117.105C1397.88 117.105 1392.37 117.462 1388.09 118.176C1386.66 121.032 1385.94 123.582 1385.94 125.826C1385.94 128.07 1386.25 130.212 1386.86 132.252C1387.47 134.292 1388.14 135.669 1388.85 136.383C1401.09 134.445 1409.05 128.07 1412.72 117.258ZM1516.62 69.981C1518.45 69.981 1520.29 70.287 1522.13 70.899C1525.8 75.285 1528.76 81.915 1531 90.789C1533.35 99.561 1534.52 108.741 1534.52 118.329C1534.52 130.671 1531.82 139.647 1526.41 145.257C1521.11 150.867 1511.26 153.672 1496.88 153.672C1485.15 153.672 1473.98 151.02 1463.37 145.716L1456.18 45.501L1488.92 40.452L1483.42 101.805H1484.79C1488.87 92.013 1493.67 84.261 1499.18 78.549C1504.79 72.837 1510.6 69.981 1516.62 69.981ZM1479.74 143.421C1482.5 143.727 1486.43 143.88 1491.53 143.88C1496.63 143.88 1501.57 143.268 1506.37 142.044C1507.9 134.19 1508.66 126.795 1508.66 119.859C1508.66 112.821 1508.36 106.344 1507.74 100.428C1507.13 94.512 1506.42 90.432 1505.6 88.188C1492.55 93.39 1483.93 111.801 1479.74 143.421ZM1565.74 152.295L1557.93 45.501L1590.68 40.452L1580.88 150.918L1565.74 152.295ZM1637.57 67.533C1662.26 77.427 1674.6 89.718 1674.6 104.406C1674.6 112.056 1672.41 117.615 1668.02 121.083C1663.74 124.449 1655.73 126.132 1644 126.132C1636.55 126.132 1630.43 125.571 1625.64 124.449C1623.7 129.243 1622.73 134.241 1622.73 139.443C1627.32 140.055 1632.52 140.361 1638.34 140.361C1648.95 140.361 1658.94 138.678 1668.33 135.312L1672.92 150.153C1665.47 152.499 1657.11 153.672 1647.82 153.672C1631.3 153.672 1619.16 150.663 1611.41 144.645C1609.78 137.403 1608.96 130.569 1608.96 124.143C1608.96 111.291 1611.77 99.714 1617.38 89.412C1623.09 79.11 1629.82 71.817 1637.57 67.533ZM1628.7 117.258C1630.02 117.36 1633.34 117.411 1638.64 117.411C1644.05 117.411 1650.22 116.697 1657.16 115.269C1657.46 113.331 1657.62 111.393 1657.62 109.455C1657.62 103.335 1655.93 97.47 1652.57 91.86C1642.47 98.592 1634.51 107.058 1628.7 117.258ZM482.19 305.329C482.19 311.551 481.68 316.753 480.66 320.935C479.64 325.015 477.804 328.636 475.152 331.798C470.052 337.714 460.158 340.672 445.47 340.672C430.884 340.672 419.562 337.357 411.504 330.727C409.77 322.159 408.903 313.693 408.903 305.329C408.903 288.397 412.065 273.25 418.389 259.888C424.815 246.526 432.261 237.04 440.727 231.43C452.661 236.326 462.555 245.506 470.409 258.97C478.263 272.332 482.19 287.785 482.19 305.329ZM463.677 298.444C463.677 282.736 461.076 269.272 455.874 258.052C445.98 267.13 438.228 277.636 432.618 289.57C427.11 301.504 424.356 313.234 424.356 324.76C427.824 325.474 431.955 325.831 436.749 325.831C446.133 325.831 454.191 324.658 460.923 322.312C462.759 314.356 463.677 306.4 463.677 298.444ZM548.419 286.663C541.483 286.663 536.23 289.111 532.66 294.007C529.09 298.801 526.489 307.675 524.857 320.629L522.715 337.918L507.568 339.295L499.765 263.407L532.507 258.358L529.447 282.838H530.518C538.678 265.294 549.082 255.961 561.73 254.839L557.446 287.428C553.672 286.918 550.663 286.663 548.419 286.663ZM612.178 270.139C608.404 270.139 605.191 270.853 602.539 272.281C601.111 279.217 600.397 286.408 600.397 293.854C600.397 301.3 600.703 307.879 601.315 313.591C601.927 319.201 602.641 323.026 603.457 325.066C608.353 324.148 613.555 320.833 619.063 315.121C622.021 312.061 624.418 307.675 626.254 301.963C628.192 296.149 629.161 289.57 629.161 282.226C629.161 281.002 629.059 278.758 628.855 275.494C624.163 271.924 618.604 270.139 612.178 270.139ZM623.347 370.66C613.147 370.66 602.641 367.09 591.829 359.95L596.113 352.3C605.191 356.278 612.688 358.267 618.604 358.267C624.622 358.267 629.008 356.686 631.762 353.524C634.618 350.362 636.046 346.129 636.046 340.825C636.046 339.193 634.975 327.922 632.833 307.012H631.609C624.061 327.31 611.209 337.459 593.053 337.459C590.605 337.459 588.565 337.051 586.933 336.235C583.159 332.461 580.099 326.953 577.753 319.711C575.509 312.367 574.387 304.156 574.387 295.078C574.387 283.348 576.733 274.78 581.425 269.374C586.219 263.866 594.481 261.112 606.211 261.112C614.779 261.112 622.174 263.152 628.396 267.232L631.762 262.795L661.138 258.358L650.581 343.885C649.561 352.147 646.705 358.675 642.013 363.469C637.321 368.263 631.099 370.66 623.347 370.66ZM692.461 340.519C690.727 340.519 689.452 340.468 688.636 340.366C685.168 338.02 682.363 334.552 680.221 329.962C678.181 325.27 677.161 320.425 677.161 315.427C677.161 308.899 679.609 304.156 684.505 301.198C689.503 298.24 698.632 296.761 711.892 296.761C716.788 296.761 721.888 297.118 727.192 297.832L726.886 294.466C726.478 290.386 724.54 287.173 721.072 284.827C717.604 282.379 713.167 281.155 707.761 281.155C702.355 281.155 696.949 282.838 691.543 286.204L684.811 264.019C693.583 260.449 703.579 258.664 714.799 258.664C726.019 258.664 734.893 261.214 741.421 266.314C747.949 271.312 751.213 279.166 751.213 289.876C751.213 292.324 751.111 294.262 750.907 295.69L746.623 337.918L731.476 339.295L729.181 317.11H727.957C724.489 324.454 719.695 330.217 713.575 334.399C707.455 338.479 700.417 340.519 692.461 340.519ZM727.804 304.258L719.695 304.105C712.963 304.105 707.455 304.462 703.171 305.176C701.743 308.032 701.029 310.582 701.029 312.826C701.029 315.07 701.335 317.212 701.947 319.252C702.559 321.292 703.222 322.669 703.936 323.383C716.176 321.445 724.132 315.07 727.804 304.258ZM831.397 256.981C833.335 256.981 835.222 257.287 837.058 257.899C842.26 264.223 845.83 275.188 847.768 290.794C849.706 306.298 850.675 321.7 850.675 337L823.135 339.295C823.135 315.835 822.268 294.466 820.534 275.188C806.968 280.186 797.941 301.096 793.453 337.918L778.306 339.295L770.503 263.407L803.245 258.358L799.879 285.286H801.256C805.336 276.412 809.977 269.476 815.179 264.478C820.381 259.48 825.787 256.981 831.397 256.981ZM880.075 339.295L872.272 263.56L905.014 258.511L895.222 337.918L880.075 339.295ZM877.015 246.577C874.261 243.721 872.884 240.355 872.884 236.479C872.884 232.603 874.261 229.288 877.015 226.534C879.871 223.678 883.237 222.25 887.113 222.25C890.989 222.25 894.304 223.678 897.058 226.534C899.914 229.288 901.342 232.603 901.342 236.479C901.342 240.355 899.914 243.721 897.058 246.577C894.304 249.331 890.989 250.708 887.113 250.708C883.237 250.708 879.871 249.331 877.015 246.577ZM927.278 259.123L989.396 260.5L991.385 276.412L940.13 327.055L987.56 321.394L988.478 337L922.535 338.377L922.994 329.044L957.419 273.046L927.737 269.986L927.278 259.123ZM1021.92 340.519C1020.19 340.519 1018.91 340.468 1018.09 340.366C1014.63 338.02 1011.82 334.552 1009.68 329.962C1007.64 325.27 1006.62 320.425 1006.62 315.427C1006.62 308.899 1009.07 304.156 1013.96 301.198C1018.96 298.24 1028.09 296.761 1041.35 296.761C1046.25 296.761 1051.35 297.118 1056.65 297.832L1056.34 294.466C1055.94 290.386 1054 287.173 1050.53 284.827C1047.06 282.379 1042.63 281.155 1037.22 281.155C1031.81 281.155 1026.41 282.838 1021 286.204L1014.27 264.019C1023.04 260.449 1033.04 258.664 1044.26 258.664C1055.48 258.664 1064.35 261.214 1070.88 266.314C1077.41 271.312 1080.67 279.166 1080.67 289.876C1080.67 292.324 1080.57 294.262 1080.37 295.69L1076.08 337.918L1060.93 339.295L1058.64 317.11H1057.42C1053.95 324.454 1049.15 330.217 1043.03 334.399C1036.91 338.479 1029.88 340.519 1021.92 340.519ZM1057.26 304.258L1049.15 304.105C1042.42 304.105 1036.91 304.462 1032.63 305.176C1031.2 308.032 1030.49 310.582 1030.49 312.826C1030.49 315.07 1030.79 317.212 1031.41 319.252C1032.02 321.292 1032.68 322.669 1033.39 323.383C1045.63 321.445 1053.59 315.07 1057.26 304.258ZM1113.12 339.295L1106.54 277.483L1092.46 279.472L1091.55 263.713L1105.01 263.101L1102.72 241.681L1140.81 236.632L1137.75 261.418L1152.9 260.653L1152.44 270.904L1136.22 273.199L1128.27 337.918L1113.12 339.295ZM1174.42 339.295L1166.62 263.56L1199.36 258.511L1189.57 337.918L1174.42 339.295ZM1171.36 246.577C1168.61 243.721 1167.23 240.355 1167.23 236.479C1167.23 232.603 1168.61 229.288 1171.36 226.534C1174.22 223.678 1177.58 222.25 1181.46 222.25C1185.33 222.25 1188.65 223.678 1191.4 226.534C1194.26 229.288 1195.69 232.603 1195.69 236.479C1195.69 240.355 1194.26 243.721 1191.4 246.577C1188.65 249.331 1185.33 250.708 1181.46 250.708C1177.58 250.708 1174.22 249.331 1171.36 246.577ZM1284.66 308.848C1284.66 319.966 1282.21 328.075 1277.32 333.175C1272.52 338.173 1263.6 340.672 1250.54 340.672C1237.48 340.672 1227.28 337.714 1219.94 331.798C1218.41 324.454 1217.65 317.11 1217.65 309.766C1217.65 302.422 1218.67 295.537 1220.71 289.111C1222.85 282.583 1225.5 277.024 1228.66 272.434C1235.29 263.05 1241.21 257.083 1246.41 254.533C1256.2 259.531 1264.82 266.314 1272.27 274.882C1280.53 284.266 1284.66 295.588 1284.66 308.848ZM1266.91 304.717C1266.91 295.027 1264.87 286.153 1260.79 278.095C1252.33 282.583 1245.34 289.417 1239.83 298.597C1234.32 307.777 1231.57 317.059 1231.57 326.443C1234.83 327.055 1239.52 327.361 1245.64 327.361C1251.76 327.361 1258.04 326.29 1264.46 324.148C1266.1 317.926 1266.91 311.449 1266.91 304.717ZM1363.16 256.981C1365.1 256.981 1366.99 257.287 1368.82 257.899C1374.02 264.223 1377.59 275.188 1379.53 290.794C1381.47 306.298 1382.44 321.7 1382.44 337L1354.9 339.295C1354.9 315.835 1354.03 294.466 1352.3 275.188C1338.73 280.186 1329.71 301.096 1325.22 337.918L1310.07 339.295L1302.27 263.407L1335.01 258.358L1331.64 285.286H1333.02C1337.1 276.412 1341.74 269.476 1346.94 264.478C1352.15 259.48 1357.55 256.981 1363.16 256.981ZM1402.51 286.663C1402.51 273.607 1409.39 261.673 1423.16 250.861L1448.25 267.691C1436.93 274.933 1431.27 282.532 1431.27 290.488C1431.27 294.67 1433.57 300.127 1438.16 306.859C1442.85 313.591 1445.19 318.844 1445.19 322.618C1445.19 335.98 1436.01 346.282 1417.65 353.524L1410.92 344.497C1418.98 340.111 1423.01 335.266 1423.01 329.962C1423.01 324.964 1419.59 318.64 1412.76 310.99C1410.21 308.134 1407.86 304.513 1405.72 300.127C1403.58 295.741 1402.51 291.253 1402.51 286.663Z" fill="white"/>
</svg>
